<?xml version="1.0" standalone="no"?>
<!DOCTYPE svg PUBLIC "-//W3C//DTD SVG 20010904//EN"
 "http://www.w3.org/TR/2001/REC-SVG-20010904/DTD/svg10.dtd">
<svg version="1.0" xmlns="http://www.w3.org/2000/svg"
 width="300.000000pt" height="267.000000pt" viewBox="0 0 300.000000 267.000000"
 preserveAspectRatio="xMidYMid meet">

<g transform="translate(0.000000,267.000000) scale(0.100000,-0.100000)"
fill="#000000" stroke="none">
<path d="M1490 1897 l0 -704 188 -7 c103 -4 216 -11 252 -15 36 -5 108 -14
160 -21 108 -13 219 -40 284 -69 56 -24 85 -68 121 -181 15 -47 32 -96 38
-110 10 -24 11 -23 24 22 19 65 38 74 175 81 64 4 123 9 131 13 10 3 16 30 20
92 4 48 11 128 17 177 18 157 42 438 44 499 1 43 -3 61 -14 66 -20 11 -91 41
-165 70 -120 47 -475 232 -483 252 -2 4 -7 8 -12 8 -9 0 -161 91 -182 110 -16
13 -91 64 -135 92 -18 11 -33 24 -33 29 0 5 -5 9 -11 9 -12 0 -228 159 -337
247 -30 24 -60 43 -68 43 -12 0 -14 -105 -14 -703z"/>
<path d="M1180 1110 c-233 -15 -468 -60 -536 -104 -17 -11 -41 -34 -52 -51
-21 -30 -60 -131 -81 -211 -14 -51 -46 -94 -72 -94 -32 0 -55 33 -69 98 -17
80 -26 88 -93 74 -29 -6 -88 -16 -133 -22 -90 -13 -111 -30 -94 -74 16 -42 58
-56 170 -56 89 0 100 -2 100 -18 0 -10 -13 -23 -32 -31 -79 -32 -140 -65 -179
-96 -46 -37 -40 -44 13 -16 106 57 157 66 338 64 91 -1 242 -7 335 -13 203
-14 1289 -8 1615 9 209 10 253 8 357 -18 48 -12 134 -56 145 -74 5 -7 8 -8 8
-1 0 24 -110 100 -192 134 -56 23 -71 41 -46 56 7 4 53 7 103 6 76 -2 95 0
123 17 24 16 32 28 32 50 0 16 -6 33 -12 39 -7 5 -73 20 -147 31 -149 24 -145
25 -157 -43 -7 -46 -33 -95 -57 -110 -32 -21 -69 15 -94 91 -12 37 -22 75 -22
83 -2 36 -61 139 -95 165 -122 93 -665 146 -1176 115z m740 -59 c8 -14 -6 -67
-29 -107 -5 -11 -40 -89 -77 -174 -36 -85 -69 -158 -73 -162 -11 -11 -314 -13
-318 -2 -2 6 25 71 60 145 35 74 77 163 92 199 16 36 38 78 48 94 l20 28 134
-4 c99 -3 136 -7 143 -17z m125 -21 c8 -13 -5 -57 -49 -160 -20 -46 -36 -88
-36 -92 0 -5 -9 -27 -19 -51 -11 -23 -24 -59 -31 -79 -13 -43 -24 -52 -63 -54
-48 -3 -46 19 14 141 10 22 19 44 19 49 0 5 9 30 21 55 11 25 28 64 38 86 10
22 25 57 34 78 13 28 22 37 41 37 14 0 28 -4 31 -10z"/>
<path d="M184 453 c-52 -43 -50 -93 4 -140 54 -48 119 -73 282 -107 328 -68
348 -70 273 -16 -108 77 -349 233 -376 243 -27 10 -53 -8 -66 -44 -15 -42 -25
-30 -26 29 0 46 0 47 -35 50 -22 1 -43 -5 -56 -15z"/>
<path d="M2678 413 l-4 -58 -13 33 c-15 37 -41 55 -68 45 -30 -11 -353 -219
-413 -266 l-25 -20 50 6 c61 7 241 40 350 66 153 35 255 104 255 172 0 43 -42
79 -91 79 l-38 0 -3 -57z"/>
<path d="M1074 168 c-22 -17 -30 -28 -19 -24 11 4 40 11 65 14 64 10 781 -1
805 -12 11 -5 3 5 -19 22 l-39 32 -377 0 -377 0 -39 -32z"/>
</g>
</svg>
